<?xml version="1.0" encoding="utf-8"?>
<!-- Generator: Adobe Illustrator 24.2.1, SVG Export Plug-In . SVG Version: 6.00 Build 0)  -->
<svg version="1.1" id="Layer_1" xmlns="http://www.w3.org/2000/svg" xmlns:xlink="http://www.w3.org/1999/xlink" x="0px" y="0px"
	 viewBox="0 0 24 24" style="enable-background:new 0 0 24 24;" xml:space="preserve">
<style type="text/css">
	.st0{fill:#2B2B2B;}
</style>
<path class="st0" d="M12.1,22.8C6.2,22.8,1.4,17.9,1.4,12S6.2,1.2,12.1,1.2S22.9,6.1,22.9,12S18.1,22.8,12.1,22.8z M12.1,2.8
	C7,2.8,2.9,6.9,2.9,12s4.2,9.2,9.2,9.2s9.2-4.1,9.2-9.2S17.2,2.8,12.1,2.8z"/>
<path class="st0" d="M12.1,16c-0.4,0-0.8-0.3-0.8-0.7s0.3-0.8,0.8-0.8s0.8,0.3,0.8,0.8C12.9,15.7,12.6,16,12.1,16z"/>
<path class="st0" d="M12.1,7.4c-0.5,0-0.8,0.4-0.8,0.8v4.6c0,0.4,0.4,0.7,0.8,0.7c0.5,0,0.8-0.3,0.8-0.7V8.2
	C12.9,7.7,12.6,7.4,12.1,7.4z"/>
</svg>
